<svg width="1168" height="356" viewBox="0 0 1168 356" fill="none" xmlns="http://www.w3.org/2000/svg">
    <path fill-rule="evenodd" clip-rule="evenodd" d="M232.182 217.891h-27.643c-30.121 0-54.539-24.418-54.539-54.539 0-30.121 24.418-54.538 54.539-54.538h2.988c10.573 0 20.479 2.852 28.992 7.829 11.067-32.785 42.073-56.39 78.592-56.39h4.109c43.531 0 78.819 35.288 78.819 78.819 0 43.531-35.288 78.82-78.819 78.82h-87.038v-.001zM1062.21 228.396h-17.56c-19.14 0-34.65-15.512-34.65-34.647 0-19.135 15.51-34.647 34.65-34.647h1.9c6.71 0 13 1.812 18.41 4.973 7.03-20.827 26.73-35.823 49.93-35.823h2.61c27.65 0 50.07 22.418 50.07 50.072 0 27.654-22.42 50.072-50.07 50.072h-55.29zM43.235 347.932H28.692C12.846 347.932 0 335.086 0 319.24s12.846-28.692 28.692-28.692h1.573c5.562 0 10.773 1.5 15.252 4.118C51.339 277.419 67.651 265 86.863 265h2.162c22.901 0 41.466 18.565 41.466 41.466 0 22.902-18.565 41.467-41.466 41.467h-45.79v-.001zM793.235 355.185h-14.543c-15.846 0-28.692-12.846-28.692-28.693 0-15.846 12.846-28.692 28.692-28.692h1.573c5.562 0 10.773 1.5 15.252 4.119 5.822-17.248 22.134-29.667 41.346-29.667h2.162c22.901 0 41.466 18.565 41.466 41.467 0 22.901-18.565 41.466-41.466 41.466h-45.79zM867.207 100.143h-17.56c-19.135 0-34.647-15.512-34.647-34.647 0-19.134 15.512-34.646 34.647-34.646h1.898c6.717 0 13.01 1.811 18.418 4.973C876.993 14.996 896.69 0 919.89 0h2.61c27.654 0 50.072 22.418 50.072 50.072 0 27.654-22.418 50.072-50.072 50.072h-55.293v-.001z" fill="#fff" fill-opacity=".15"/>
</svg>
