<svg width="22" height="22" viewBox="0 0 22 22" fill="none" xmlns="http://www.w3.org/2000/svg">
    <path d="M19.25 14.396h-5.5a.193.193 0 0 1-.188-.188c0-.1.088-.187.188-.187h5.5c.1 0 .188.088.188.188s-.088.187-.188.187zM19.25 18.063h-5.5a.193.193 0 0 1-.188-.188c0-.1.088-.188.188-.188h5.5c.1 0 .188.088.188.188s-.088.188-.188.188z" fill="#222" stroke="#444E72"/>
    <path d="M20.167 7.81V3.65c0-1.293-.587-1.816-2.045-1.816H14.42c-1.457 0-2.044.523-2.044 1.815v4.153c0 1.302.587 1.815 2.044 1.815h3.703c1.458.01 2.045-.513 2.045-1.806zM9.625 7.81V3.65c0-1.293-.587-1.816-2.044-1.816H3.877c-1.457 0-2.044.523-2.044 1.815v4.153c0 1.302.587 1.815 2.044 1.815h3.704c1.457.01 2.044-.513 2.044-1.806zM9.625 18.122V14.42c0-1.457-.587-2.044-2.044-2.044H3.877c-1.457 0-2.044.587-2.044 2.044v3.703c0 1.458.587 2.045 2.044 2.045h3.704c1.457 0 2.044-.587 2.044-2.045z" fill="#222"/>
</svg>
