<svg width="113" height="111" viewBox="0 0 113 111" fill="none" xmlns="http://www.w3.org/2000/svg">
    <path d="M14.251 88.004 12 77.464h2.356l1.096 5.616c.02.07.035.165.045.286.01.12.02.2.03.24.01-.05.02-.135.03-.255.01-.12.025-.221.045-.301l1.335-5.587h1.996l1.35 5.602a5.248 5.248 0 0 1 .09.572c.01-.04.02-.096.03-.166.01-.07.021-.135.031-.196l.03-.18 1.08-5.632h2.357l-2.267 10.54h-2.16l-1.471-5.857a8.99 8.99 0 0 1-.09-.587c-.04.341-.07.532-.09.572l-1.41 5.873H14.25zM27.906 88.184c-1.13 0-2.021-.356-2.672-1.069-.65-.713-.975-1.701-.975-2.966 0-1.235.325-2.214.975-2.936.66-.723 1.551-1.085 2.672-1.085 1.02 0 1.85.311 2.49.934.641.622.961 1.526.961 2.71 0 .492-.02.869-.06 1.13H26.39c.02.481.17.843.45 1.084.28.23.635.346 1.066.346.7 0 1.275-.27 1.725-.813l1.261 1.265c-.77.933-1.766 1.4-2.986 1.4zm-1.501-4.924h2.866c-.11-.853-.595-1.28-1.456-1.28-.39 0-.71.116-.96.347-.25.22-.4.532-.45.933zM37.5 88.004v-.573c-.46.502-1.095.753-1.905.753-.85 0-1.546-.216-2.086-.647-.53-.442-.796-1.07-.796-1.882 0-.793.31-1.4.93-1.822.621-.432 1.346-.648 2.177-.648.72 0 1.28.09 1.68.271v-.422c0-.35-.11-.617-.33-.798-.22-.19-.525-.286-.915-.286-.83 0-1.65.271-2.461.813l-.676-1.671c.94-.642 2.036-.964 3.287-.964 2.171 0 3.256 1.004 3.256 3.012v4.864h-2.16zm-1.485-1.657c.54 0 1.035-.18 1.486-.542v-.693a4.51 4.51 0 0 0-1.306-.18c-.9 0-1.35.246-1.35.738 0 .451.39.677 1.17.677zM44.077 88.184c-1.29 0-1.936-.702-1.936-2.108v-3.855h-1.05V80.31h1.05v-2.138l2.161-1.04v3.178h1.666v1.912h-1.666v3.644c0 .14.04.251.12.332.09.07.196.105.316.105.44 0 .88-.1 1.32-.301l-.24 1.837c-.47.23-1.05.346-1.74.346zM47.79 88.004V78.14l2.175-1.01v3.886c.49-.593 1.186-.889 2.086-.889.71 0 1.331.226 1.861.678.53.452.796 1.184.796 2.198v5h-2.176v-4.126c0-.573-.095-.99-.285-1.25-.18-.261-.49-.392-.93-.392-.901 0-1.352.537-1.352 1.612v4.156H47.79zM60.162 88.184c-1.13 0-2.021-.356-2.671-1.069-.65-.713-.976-1.701-.976-2.966 0-1.235.325-2.214.976-2.936.66-.723 1.55-1.085 2.67-1.085 1.021 0 1.852.311 2.492.934.64.622.96 1.526.96 2.71 0 .492-.02.869-.06 1.13h-4.907c.02.481.17.843.45 1.084.28.23.636.346 1.066.346.7 0 1.276-.27 1.726-.813l1.26 1.265c-.77.933-1.766 1.4-2.986 1.4zm-1.5-4.924h2.866c-.11-.853-.596-1.28-1.456-1.28-.39 0-.71.116-.96.347-.25.22-.4.532-.45.933zM65.42 88.004v-7.695h2.176v.693c.1-.201.28-.397.54-.588.26-.19.565-.286.916-.286.6 0 1.105.216 1.515.648l-.285 1.987c-.42-.35-.875-.527-1.366-.527-.88 0-1.32.532-1.32 1.597v4.17H65.42zM78.28 88.004l-.781-2.048h-3.947l-.78 2.048H70.28l4.142-10.54h2.191l4.157 10.54h-2.49zm-1.547-4.156-.9-2.274a8.207 8.207 0 0 1-.315-.888c-.04.17-.145.466-.315.888l-.9 2.274h2.43zM85.877 88.184c-.66 0-1.165-.226-1.515-.677v2.514l-2.176.98V80.308h2.175v.527c.34-.472.856-.708 1.546-.708.96 0 1.726.352 2.296 1.054.58.693.87 1.687.87 2.982 0 1.235-.3 2.213-.9 2.936-.6.723-1.365 1.084-2.296 1.084zm-.345-2.108c.43 0 .765-.165 1.005-.497.24-.341.36-.813.36-1.415 0-1.285-.455-1.928-1.365-1.928-.49 0-.88.156-1.17.467v2.876c.06.13.195.246.405.347.21.1.465.15.765.15zM94.641 88.184c-.66 0-1.166-.226-1.516-.677v2.514l-2.176.98V80.308h2.176v.527c.34-.472.856-.708 1.546-.708.96 0 1.726.352 2.296 1.054.58.693.87 1.687.87 2.982 0 1.235-.3 2.213-.9 2.936-.6.723-1.365 1.084-2.296 1.084zm-.345-2.108c.43 0 .765-.165 1.005-.497.24-.341.36-.813.36-1.415 0-1.285-.455-1.928-1.365-1.928-.49 0-.88.156-1.17.467v2.876c.06.13.194.246.405.347.21.1.465.15.765.15z" fill="#fff"/>
    <g filter="url(#rz77pg29ta)">
        <path fill-rule="evenodd" clip-rule="evenodd" d="M72.101 60.785a16.514 16.514 0 0 1-4.703 2.654c-8.573 3.135-18.046-1.288-21.158-9.878a16.55 16.55 0 0 1 .596-12.733c-5.363 4.323-7.661 11.739-5.184 18.575 3.112 8.59 12.585 13.013 21.158 9.878a16.517 16.517 0 0 0 9.291-8.496z" fill="#FBFF22"/>
    </g>
    <path fill-rule="evenodd" clip-rule="evenodd" d="M72.101 60.785a16.514 16.514 0 0 1-4.703 2.654c-8.573 3.135-18.046-1.288-21.158-9.878a16.55 16.55 0 0 1 .596-12.733c-5.363 4.323-7.661 11.739-5.184 18.575 3.112 8.59 12.585 13.013 21.158 9.878a16.517 16.517 0 0 0 9.291-8.496z" fill="#FBFF22"/>
    <defs>
        <filter id="rz77pg29ta" x=".656" y=".828" width="111.446" height="109.461" filterUnits="userSpaceOnUse" color-interpolation-filters="sRGB">
            <feFlood flood-opacity="0" result="BackgroundImageFix"/>
            <feBlend in="SourceGraphic" in2="BackgroundImageFix" result="shape"/>
            <feGaussianBlur stdDeviation="20" result="effect1_foregroundBlur_8573_21951"/>
        </filter>
    </defs>
</svg>
