<svg width="29" height="30" viewBox="0 0 29 30" fill="none" xmlns="http://www.w3.org/2000/svg">
    <path d="M24.569 19.913c-.183-.338-.696-.863-1.974-.613-.708.138-1.427.2-2.146.163-2.659-.125-5.067-1.463-6.744-3.525a10.708 10.708 0 0 1-2.408-6.725c0-1.425.251-2.8.765-4.1.502-1.263.148-1.925-.103-2.2-.262-.288-.879-.688-2.088-.138-4.667 2.15-7.555 7.275-7.212 12.763C3 20.7 6.31 25.113 10.692 26.775c1.05.4 2.157.638 3.298.688.183.012.365.025.548.025 3.823 0 7.406-1.975 9.666-5.338.764-1.162.559-1.9.365-2.237z" fill="#FFD130"/>
</svg>
