<svg xmlns="http://www.w3.org/2000/svg" fill="none" viewBox="4 40.47 110 64.29">
    <path d="M6.885 100.923 4 87.416h3.02l1.403 7.197c.026.09.045.213.058.367.013.154.026.257.038.309a3.33 3.33 0 0 0 .039-.328c.013-.155.032-.283.058-.386l1.711-7.16h2.558l1.73 7.179a6.65 6.65 0 0 1 .116.733c.013-.051.026-.122.039-.212a10.976 10.976 0 0 1 .077-.482l1.384-7.217h3.02l-2.905 13.507h-2.769l-1.884-7.506a11.503 11.503 0 0 1-.116-.753c-.051.438-.09.682-.115.734l-1.808 7.525h-2.77zM24.383 101.155c-1.449 0-2.59-.457-3.423-1.37-.834-.914-1.25-2.18-1.25-3.802 0-1.582.416-2.836 1.25-3.763.846-.926 1.987-1.389 3.423-1.389 1.308 0 2.372.399 3.192 1.197.82.797 1.231 1.955 1.231 3.473 0 .63-.026 1.113-.077 1.447h-6.288c.025.618.217 1.08.576 1.39.36.295.815.443 1.366.443.897 0 1.634-.347 2.212-1.042l1.615 1.621c-.987 1.197-2.263 1.795-3.827 1.795zm-1.923-6.31h3.673c-.141-1.094-.763-1.64-1.866-1.64-.5 0-.91.148-1.23.444-.32.282-.513.681-.577 1.196zM36.679 100.923v-.733c-.59.643-1.404.965-2.443.965-1.09 0-1.98-.277-2.673-.83-.68-.566-1.02-1.37-1.02-2.412 0-1.016.398-1.795 1.193-2.335.795-.553 1.725-.83 2.789-.83.923 0 1.64.116 2.154.348v-.54c0-.45-.141-.792-.424-1.023-.282-.245-.673-.367-1.173-.367-1.064 0-2.115.347-3.154 1.042l-.865-2.142c1.205-.823 2.61-1.235 4.212-1.235 2.782 0 4.173 1.287 4.173 3.86v6.232h-2.77zm-1.904-2.122c.692 0 1.327-.232 1.904-.695v-.888a5.78 5.78 0 0 0-1.674-.231c-1.153 0-1.73.315-1.73.945 0 .58.5.869 1.5.869zM45.107 101.155c-1.654 0-2.481-.901-2.481-2.702v-4.94H41.28v-2.45h1.346v-2.74l2.77-1.332v4.072h2.134v2.45h-2.135v4.67c0 .18.051.322.154.425.115.09.25.135.404.135.564 0 1.128-.129 1.692-.386l-.308 2.354c-.602.296-1.346.444-2.23.444zM49.864 100.923V88.284l2.788-1.293v4.979c.629-.76 1.52-1.139 2.673-1.139.91 0 1.706.29 2.385.868.68.58 1.02 1.519 1.02 2.818v6.406h-2.79v-5.287c0-.733-.12-1.267-.364-1.602-.231-.334-.629-.501-1.193-.501-1.154 0-1.73.688-1.73 2.064v5.326h-2.79zM65.719 101.155c-1.449 0-2.59-.457-3.423-1.37-.834-.914-1.25-2.18-1.25-3.802 0-1.582.416-2.836 1.25-3.763.846-.926 1.987-1.389 3.423-1.389 1.308 0 2.372.399 3.192 1.197.821.797 1.231 1.955 1.231 3.473 0 .63-.025 1.113-.077 1.447h-6.288c.025.618.218 1.08.577 1.39.359.295.814.443 1.365.443.898 0 1.635-.347 2.212-1.042l1.615 1.621c-.987 1.197-2.263 1.795-3.827 1.795zm-1.923-6.31h3.673c-.14-1.094-.763-1.64-1.865-1.64-.5 0-.91.148-1.231.444-.32.282-.513.681-.577 1.196zM72.457 100.923v-9.86h2.789v.887c.128-.257.359-.508.692-.752a1.93 1.93 0 0 1 1.173-.367c.77 0 1.417.277 1.942.83l-.365 2.547c-.539-.45-1.122-.675-1.75-.675-1.128 0-1.692.681-1.692 2.045v5.345h-2.79zM88.936 100.923l-1-2.624h-5.058l-1 2.624h-3.192l5.307-13.507h2.808l5.327 13.507h-3.192zm-1.98-5.326L85.8 92.684c-.18-.438-.314-.817-.404-1.139-.05.219-.186.598-.404 1.139l-1.153 2.913h3.115zM98.673 101.155c-.846 0-1.494-.29-1.942-.869v3.223l-2.789 1.254v-13.7h2.789v.675c.435-.605 1.096-.907 1.98-.907 1.231 0 2.212.45 2.943 1.35.743.889 1.115 2.162 1.115 3.822 0 1.582-.384 2.836-1.154 3.762-.769.927-1.75 1.39-2.942 1.39zm-.442-2.702c.55 0 .98-.212 1.288-.636.308-.438.462-1.042.462-1.814 0-1.647-.584-2.47-1.75-2.47-.629 0-1.129.2-1.5.598v3.686c.077.167.25.315.519.443.269.129.596.193.98.193zM109.904 101.155c-.846 0-1.494-.29-1.943-.869v3.223l-2.788 1.254v-13.7h2.788v.675c.436-.605 1.097-.907 1.981-.907 1.231 0 2.212.45 2.943 1.35.743.889 1.115 2.162 1.115 3.822 0 1.582-.385 2.836-1.154 3.762-.769.927-1.75 1.39-2.942 1.39zm-.443-2.702c.552 0 .981-.212 1.289-.636.308-.438.461-1.042.461-1.814 0-1.647-.583-2.47-1.75-2.47-.628 0-1.128.2-1.5.598v3.686c.077.167.25.315.52.443.269.129.596.193.98.193z" fill="#fff"/>
    <g filter="url(#qh22oy0lna)">
        <path fill-rule="evenodd" clip-rule="evenodd" d="M81.02 66.043a21.168 21.168 0 0 1-6.028 3.401c-10.986 4.017-23.125-1.65-27.114-12.658a21.208 21.208 0 0 1 .764-16.318c-6.873 5.54-9.818 15.043-6.644 23.804 3.989 11.008 16.128 16.676 27.114 12.659A21.166 21.166 0 0 0 81.02 66.043z" fill="#FBFF22"/>
    </g>
    <path fill-rule="evenodd" clip-rule="evenodd" d="M81.02 66.043a21.168 21.168 0 0 1-6.028 3.401c-10.986 4.017-23.125-1.65-27.114-12.658a21.208 21.208 0 0 1 .764-16.318c-6.873 5.54-9.818 15.043-6.644 23.804 3.989 11.008 16.128 16.676 27.114 12.659A21.166 21.166 0 0 0 81.02 66.043z" fill="#FBFF22"/>
    <defs>
        <filter id="qh22oy0lna" x=".722" y=".468" width="120.297" height="117.754" filterUnits="userSpaceOnUse" color-interpolation-filters="sRGB">
            <feFlood flood-opacity="0" result="BackgroundImageFix"/>
            <feBlend in="SourceGraphic" in2="BackgroundImageFix" result="shape"/>
            <feGaussianBlur stdDeviation="20" result="effect1_foregroundBlur_5793_11015"/>
        </filter>
    </defs>
</svg>