<svg width="35" height="36" viewBox="0 0 35 36" fill="none" xmlns="http://www.w3.org/2000/svg">
    <path d="M17.584 28.5c5.54 0 10.032-4.701 10.032-10.5S23.124 7.5 17.584 7.5C12.043 7.5 7.55 12.201 7.55 18s4.492 10.5 10.033 10.5zM17.584 34.44A1.42 1.42 0 0 1 16.15 33v-.12c0-.825.645-1.5 1.434-1.5.788 0 1.433.675 1.433 1.5s-.645 1.56-1.433 1.56zm10.233-4.23c-.373 0-.731-.15-1.018-.435l-.186-.195a1.543 1.543 0 0 1 0-2.115 1.383 1.383 0 0 1 2.02 0l.187.195c.559.585.559 1.53 0 2.115-.273.285-.63.435-1.003.435zm-20.466 0c-.373 0-.731-.15-1.018-.435a1.543 1.543 0 0 1 0-2.115l.186-.195a1.383 1.383 0 0 1 2.021 0c.559.585.559 1.53 0 2.115l-.186.195a1.403 1.403 0 0 1-1.003.435zM31.916 19.5H31.8c-.788 0-1.433-.675-1.433-1.5s.645-1.5 1.433-1.5 1.49.675 1.49 1.5-.587 1.5-1.375 1.5zm-28.55 0h-.114c-.789 0-1.434-.675-1.434-1.5s.645-1.5 1.434-1.5c.788 0 1.49.675 1.49 1.5s-.588 1.5-1.376 1.5zM27.63 8.985c-.372 0-.73-.15-1.017-.435a1.543 1.543 0 0 1 0-2.115l.186-.195a1.383 1.383 0 0 1 2.02 0c.56.585.56 1.53 0 2.115l-.185.195c-.273.285-.631.435-1.004.435zm-20.093 0c-.373 0-.731-.15-1.018-.435l-.186-.21a1.543 1.543 0 0 1 0-2.115 1.383 1.383 0 0 1 2.02 0l.187.195c.559.585.559 1.53 0 2.115-.272.3-.645.45-1.003.45zM17.584 4.56a1.42 1.42 0 0 1-1.434-1.44V3c0-.825.645-1.5 1.434-1.5.788 0 1.433.675 1.433 1.5s-.645 1.56-1.433 1.56z" fill="#FFD130"/>
</svg>
